<svg xmlns="http://www.w3.org/2000/svg" width="512" height="512" viewBox="0 0 512 512" fill="none">
  <defs>
    <linearGradient id="gCyan" x1="154" y1="144" x2="346" y2="144" gradientUnits="userSpaceOnUse">
      <stop offset="0%" stop-color="#40C9FF"/>
      <stop offset="100%" stop-color="#00d2ff"/>
    </linearGradient>
    <linearGradient id="gViolet" x1="186" y1="176" x2="250" y2="400" gradientUnits="userSpaceOnUse">
      <stop offset="0%" stop-color="#00d2ff"/>
      <stop offset="45%" stop-color="#9d50bb"/>
      <stop offset="100%" stop-color="#DA22FF"/>
    </linearGradient>
    <linearGradient id="gMagenta" x1="218" y1="186" x2="294" y2="400" gradientUnits="userSpaceOnUse">
      <stop offset="0%" stop-color="#9733EE"/>
      <stop offset="100%" stop-color="#ff007f"/>
    </linearGradient>
    <linearGradient id="gWarm" x1="258" y1="154" x2="346" y2="400" gradientUnits="userSpaceOnUse">
      <stop offset="0%" stop-color="#F7971E"/>
      <stop offset="100%" stop-color="#FFD200"/>
    </linearGradient>
  </defs>
  <rect width="512" height="512" rx="96" fill="#0b111b"/>
  <g transform="translate(148, 128) scale(5.3)">
    <path fill="url(#gCyan)" d="M3 4h36c1.1 0 2 .9 2 2v4c0 1.1-.9 2-2 2H25v5h-4V12H5c-1.1 0-2-.9-2-2V4z"/>
    <path fill="url(#gViolet)" d="M9 12h5.5l10.5 32H19L9.5 17H9v-5z"/>
    <path fill="url(#gMagenta)" d="M19.5 15.5L30 44h5.5L25.5 12H20v3.5z"/>
    <path fill="url(#gWarm)" d="M25 6h6.5l9.5 38h-5.5l-4.5-19.5-5.5 19.5H20l10-38z"/>
  </g>
</svg>
