<svg xmlns="http://www.w3.org/2000/svg" viewBox="0 0 500 80" fill="none" role="img" aria-label="TVK Infrastructure and Energy Systems">
  <defs>
    <linearGradient id="gCyan" x1="2" y1="6" x2="40" y2="6" gradientUnits="userSpaceOnUse">
      <stop offset="0%" stop-color="#00f2ff"/>
      <stop offset="100%" stop-color="#00c8e8"/>
    </linearGradient>
    <linearGradient id="gViolet" x1="10" y1="12" x2="22" y2="48" gradientUnits="userSpaceOnUse">
      <stop offset="0%" stop-color="#00c8e8"/>
      <stop offset="45%" stop-color="#8b5cf6"/>
      <stop offset="100%" stop-color="#e91e8c"/>
    </linearGradient>
    <linearGradient id="gMagenta" x1="18" y1="14" x2="30" y2="48" gradientUnits="userSpaceOnUse">
      <stop offset="0%" stop-color="#a855f7"/>
      <stop offset="100%" stop-color="#ff4081"/>
    </linearGradient>
    <linearGradient id="gWarm" x1="26" y1="8" x2="40" y2="48" gradientUnits="userSpaceOnUse">
      <stop offset="0%" stop-color="#ff6d00"/>
      <stop offset="100%" stop-color="#ff9d00"/>
    </linearGradient>
  </defs>
  <g transform="translate(0, 10) scale(1.05)">
    <rect x="0" y="0" width="52" height="56" rx="8" fill="#0d1117"/>
    <path fill="url(#gCyan)" d="M3 4h36c1.1 0 2 .9 2 2v4c0 1.1-.9 2-2 2H25v5h-4V12H5c-1.1 0-2-.9-2-2V4z"/>
    <path fill="url(#gViolet)" d="M9 12h5.5l10.5 32H19L9.5 17H9v-5z"/>
    <path fill="url(#gMagenta)" d="M19.5 15.5L30 44h5.5L25.5 12H20v3.5z"/>
    <path fill="url(#gWarm)" d="M25 6h6.5l9.5 38h-5.5l-4.5-19.5-5.5 19.5H20l10-38z"/>
  </g>
  <text x="68" y="36" fill="#0a1628" font-family="'IBM Plex Sans', system-ui, -apple-system, 'Segoe UI', sans-serif" font-size="32" font-weight="700" letter-spacing="0.05em">TVK</text>
  <text x="68" y="52" fill="#5c6470" font-family="'IBM Plex Sans', system-ui, -apple-system, 'Segoe UI', sans-serif" font-size="8.5" font-weight="500" letter-spacing="0.16em">INFRASTRUCTURE &amp;</text>
  <text x="68" y="64" fill="#5c6470" font-family="'IBM Plex Sans', system-ui, -apple-system, 'Segoe UI', sans-serif" font-size="8.5" font-weight="500" letter-spacing="0.16em">ENERGY SYSTEMS LTD</text>
</svg>
